<svg width="25" height="25" viewBox="0 0 25 25" fill="none" xmlns="http://www.w3.org/2000/svg">
<g id="Search" clip-path="url(#clip0_198_506)">
<path id="Vector" d="M17.8571 15.7143H16.7286L16.3286 15.3286C17.7286 13.7 18.5714 11.5857 18.5714 9.28571C18.5714 4.15714 14.4143 0 9.28571 0C4.15714 0 0 4.15714 0 9.28571C0 14.4143 4.15714 18.5714 9.28571 18.5714C11.5857 18.5714 13.7 17.7286 15.3286 16.3286L15.7143 16.7286V17.8571L22.8571 24.9857L24.9857 22.8571L17.8571 15.7143ZM9.28571 15.7143C5.72857 15.7143 2.85714 12.8429 2.85714 9.28571C2.85714 5.72857 5.72857 2.85714 9.28571 2.85714C12.8429 2.85714 15.7143 5.72857 15.7143 9.28571C15.7143 12.8429 12.8429 15.7143 9.28571 15.7143Z" fill="#F04923"/>
</g>
<defs>
<clipPath id="clip0_198_506">
<rect width="25" height="25" fill="white"/>
</clipPath>
</defs>
</svg>
